<svg enable-background="new 0 0 500 400" viewBox="0 0 500 400" xmlns="http://www.w3.org/2000/svg"><path d="m243.59 212.96s-30.1.53-42.43-14.84c0 0 9.96-18.74 10.64-20.76s10.3-18.57 11.65-22.62 3.21-5.57 6.41-5.91c3.21-.34 41.7-14.52 41.7-14.52s11.48-.34 12.32-.34 7.09.84 9.12 1.35 5.23 1.35 5.23 1.35 4.22 2.7 4.56 3.88-.68 8.61-.51 9.45 2.87-1.35.34 7.43-2.36 13.17-3.55 14.18c-1.18 1.01-22.45 25.83-22.45 25.83s-10.8 9.12-11.99 9.12c-1.17 0-21.04 6.4-21.04 6.4z" fill="#00796b"/><path d="m168.89 206.49c.08-14.88 3.06-29.12 8.91-42.78.32-.75.68-1.48 1.02-2.22.98-2.07 2.64-2.69 4.72-1.97 1.82.63 2.51 2.66 1.71 4.79-1.46 3.89-3.16 7.71-4.44 11.66-17.7 54.74 14.68 113.57 70.36 127.93.88.23 1.77.41 2.62.7 1.89.64 2.84 2.02 2.47 3.97-.4 2.09-1.88 3.05-3.98 2.8-1.16-.13-2.31-.46-3.44-.76-44.04-11.85-75.26-48.97-79.36-94.37-.29-3.24-.4-6.5-.59-9.75z" fill="#2c2c2c"/><path d="m239.18 112.61c.34-1.64.26-3.27-.06-4.91-.5-2.58-1.53-4.97-2.85-7.23-.77-1.31-1.59-2.56-2.56-3.75-1.96-2.42-4.18-4.62-6.88-6.28-1.49-.93-3.09-1.64-4.89-1.82-.73-.08-1.43-.04-2.12.14-1.23.32-2.1 1.11-2.68 2.2-.46.89-.75 1.82-.95 2.79-.46 2.3-.42 4.6-.16 6.9.4 3.55 1.37 6.96 2.97 10.17.46.93 1.03 1.8 1.57 2.66.91 1.49 2.08 2.73 3.41 3.84 1.94 1.61 4.16 2.38 6.68 2.32h.3c.04.16.08.3.1.44.2 1.29.38 2.58.54 3.9.1 1.09.2 2.2.28 3.29.08 1.53.18 3.09.26 4.62 1.76-.99 3.53-1.88 5.35-2.73-.2-1.19-.44-2.4-.69-3.59-.24-1.19-.5-2.4-.77-3.59-.24-1.15-.48-2.28-.73-3.43-.04-.18 0-.28.16-.38 2.02-1.34 3.23-3.19 3.72-5.56zm-13.61 2.08c-.24-.08-.46-.2-.65-.34-1.05-.77-2-1.68-2.79-2.7-.77-1.01-1.37-2.1-1.96-3.21-1.19-2.26-1.94-4.66-2.36-7.19-.34-1.92-.5-3.86-.28-5.79.08-.73.14-1.47.4-2.16.18-.46.46-.81.89-1.05.75-.44 1.45-.18 1.74.63.08.22.14.44.16.69.04.55.08 1.11.04 1.66-.08 1.03-.22 2.04-.32 3.07-.16 1.41-.12 2.81.18 4.18.28 1.33.73 2.6 1.17 3.88.77 2.22 1.74 4.32 3.19 6.18.22.3.46.63.69.93.2.28.3.61.3.95 0 .25-.16.38-.4.27z"/><path d="m208.47 140.09c-.52-.97-1.07-1.94-1.61-2.91-1.76-3.05-3.53-6.1-5.31-9.12-.14-.24-.14-.4.04-.63 2.18-2.79 3.03-5.96 2.62-9.45-.28-2.44-1.13-4.7-2.32-6.82-1.88-3.39-4.42-6.26-7.29-8.82-1.68-1.47-3.41-2.85-5.29-4.06-3.88-2.5-7.95-4.54-12.48-5.63-2.54-.61-5.09-.87-7.69-.3-1.03.22-2 .61-2.89 1.17-1.57 1.01-2.42 2.5-2.75 4.3-.24 1.43-.22 2.89-.04 4.32.4 3.41 1.49 6.62 2.93 9.71 2.2 4.8 5.09 9.12 8.8 12.86 1.07 1.09 2.24 2.04 3.41 3.03 1.94 1.64 4.16 2.85 6.52 3.77 3.45 1.37 6.9 1.43 10.4.18.12-.04.26-.08.44-.12.1.2.22.38.32.57 1.64 3.15 3.11 6.38 4.42 9.67.59 1.45 1.17 2.91 1.72 4.38.97 2.48 1.92 4.97 2.83 7.45.12.3.22.63.34.93 2.04-2.62 4.22-5.13 6.52-7.49-1.15-2.35-2.37-4.67-3.64-6.99zm-22.32-13c-.36 0-.73-.06-1.05-.16-1.84-.63-3.55-1.43-5.15-2.52-1.51-1.05-2.87-2.32-4.18-3.59-2.71-2.62-4.84-5.63-6.6-8.94-1.33-2.54-2.44-5.17-3.03-7.99-.22-1.05-.48-2.1-.44-3.21.04-.71.3-1.33.79-1.86.85-.95 1.94-.93 2.71.1.2.26.4.54.55.87.28.75.61 1.51.81 2.28.36 1.47.63 2.97.95 4.46.42 2.02 1.11 3.96 2.16 5.75 1.01 1.72 2.22 3.31 3.41 4.89 2.08 2.73 4.4 5.23 7.27 7.15.46.34.95.67 1.41 1.01.4.28.67.71.83 1.17.12.37-.04.61-.44.59z"/><path d="m239.18 112.61c.34-1.64.26-3.27-.06-4.91-.5-2.58-1.53-4.97-2.85-7.23-.77-1.31-1.59-2.56-2.56-3.75-1.96-2.42-4.18-4.62-6.88-6.28-1.49-.93-3.09-1.64-4.89-1.82-.73-.08-1.43-.04-2.12.14-1.23.32-2.1 1.11-2.68 2.2-.46.89-.75 1.82-.95 2.79-.46 2.3-.42 4.6-.16 6.9.4 3.55 1.37 6.96 2.97 10.17.46.93 1.03 1.8 1.57 2.66.91 1.49 2.08 2.73 3.41 3.84 1.94 1.61 4.16 2.38 6.68 2.32h.3c.04.16.08.3.1.44.2 1.29.38 2.58.54 3.9.1 1.09.2 2.2.28 3.29.08 1.53.18 3.09.26 4.62 1.76-.99 3.53-1.88 5.35-2.73-.2-1.19-.44-2.4-.69-3.59-.24-1.19-.5-2.4-.77-3.59-.24-1.15-.48-2.28-.73-3.43-.04-.18 0-.28.16-.38 2.02-1.34 3.23-3.19 3.72-5.56z" fill="#2c2c2c"/><path d="m208.47 140.09c-.52-.97-1.07-1.94-1.61-2.91-1.76-3.05-3.53-6.1-5.31-9.12-.14-.24-.14-.4.04-.63 2.18-2.79 3.03-5.96 2.62-9.45-.28-2.44-1.13-4.7-2.32-6.82-1.88-3.39-4.42-6.26-7.29-8.82-1.68-1.47-3.41-2.85-5.29-4.06-3.88-2.5-7.95-4.54-12.48-5.63-2.54-.61-5.09-.87-7.69-.3-1.03.22-2 .61-2.89 1.17-1.57 1.01-2.42 2.5-2.75 4.3-.24 1.43-.22 2.89-.04 4.32.4 3.41 1.49 6.62 2.93 9.71 2.2 4.8 5.09 9.12 8.8 12.86 1.07 1.09 2.24 2.04 3.41 3.03 1.94 1.64 4.16 2.85 6.52 3.77 3.45 1.37 6.9 1.43 10.4.18.12-.04.26-.08.44-.12.1.2.22.38.32.57 1.64 3.15 3.11 6.38 4.42 9.67.59 1.45 1.17 2.91 1.72 4.38.97 2.48 1.92 4.97 2.83 7.45.12.3.22.63.34.93 2.04-2.62 4.22-5.13 6.52-7.49-1.15-2.35-2.37-4.67-3.64-6.99z" fill="#2c2c2c"/><path d="m200.13 118.2c-.2-1.74-.81-3.47-1.84-5.33-1.47-2.66-3.59-5.21-6.42-7.73-1.72-1.51-3.29-2.73-4.82-3.71-4.02-2.6-7.59-4.22-11.22-5.09-1.41-.34-2.64-.5-3.77-.5-.75 0-1.43.06-2.12.22-.59.12-1.11.32-1.55.63-.4.24-.79.61-.95 1.57-.16.93-.16 1.96-.02 3.17.32 2.64 1.17 5.41 2.58 8.5 2.08 4.5 4.76 8.44 8.01 11.71.77.79 1.66 1.53 2.58 2.32l.57.46c1.45 1.23 3.23 2.24 5.41 3.11 1.33.52 2.6.79 3.9.79.54 0 1.11-.06 1.68-.16.08 0 .14-.02.2-.02l.2-.06c1.07-.26 3.71-1.07 5.53-3.03l.26-.34c.16-.2.32-.42.5-.69.12-.16.22-.34.38-.65.85-1.56 1.13-3.23.91-5.17z"/><path d="m199.22 123.37c-.16.3-.26.48-.38.65-.18.26-.34.48-.5.69l-.26.34c-1.82 1.96-4.46 2.77-5.53 3.03l-.2.06c-.06 0-.12.02-.2.02-.57.1-1.13.16-1.68.16-1.29 0-2.56-.26-3.9-.79-2.18-.87-3.96-1.88-5.41-3.11l-.57-.46c-.93-.79-1.82-1.53-2.58-2.32-3.25-3.27-5.93-7.21-8.01-11.71-1.41-3.09-2.26-5.85-2.58-8.5-.14-1.21-.14-2.24.02-3.17.16-.97.55-1.33.95-1.57.44-.3.97-.5 1.55-.63.69-.16 1.37-.22 2.12-.22 1.13 0 2.36.16 3.77.5 3.63.87 7.21 2.48 11.22 5.09 1.53.99 3.11 2.2 4.82 3.71 2.83 2.52 4.95 5.07 6.42 7.73 1.03 1.86 1.64 3.59 1.84 5.33.22 1.94-.06 3.61-.91 5.17z" fill="#00796b"/><path d="m186.86 122.79c.11.27 0 .44-.29.43-.25.01-.51-.03-.74-.1-1.3-.41-2.51-.94-3.65-1.68-1.08-.71-2.05-1.58-2.99-2.45-1.94-1.79-3.49-3.86-4.78-6.15-.98-1.76-1.8-3.58-2.26-5.55-.17-.73-.38-1.46-.37-2.24.02-.5.19-.94.52-1.31.58-.68 1.34-.68 1.9.02.15.18.29.37.4.6.21.52.45 1.05.6 1.58.28 1.03.49 2.07.74 3.11.33 1.41.85 2.75 1.61 3.99.74 1.18 1.61 2.28 2.47 3.36 1.5 1.87 3.17 3.59 5.21 4.88.33.23.68.45 1.01.68.3.22.5.51.62.83z" fill="#fff"/><path d="m236.22 112.16c.24-1.13.22-2.35-.04-3.73-.37-1.98-1.17-4.02-2.42-6.2-.76-1.31-1.5-2.4-2.26-3.34-1.98-2.48-3.89-4.24-5.99-5.54-.82-.51-1.56-.87-2.27-1.11-.47-.16-.91-.26-1.38-.3-.39-.05-.77-.03-1.11.07-.3.07-.62.22-.93.79-.3.55-.51 1.2-.67 1.99-.35 1.73-.39 3.65-.15 5.88.37 3.26 1.23 6.3 2.59 9.03.32.66.72 1.31 1.14 2l.26.41c.66 1.08 1.56 2.08 2.75 3.08.73.61 1.47 1.04 2.29 1.31.34.11.71.19 1.09.25.05.02.09.02.13.03h.14c.73.06 2.56.1 4.11-.75l.24-.16c.14-.09.29-.2.46-.33.11-.08.21-.17.38-.33.85-.79 1.38-1.78 1.64-3.05z"/><path d="m234.58 115.22c-.16.16-.27.25-.38.33-.17.13-.32.23-.46.33l-.24.16c-1.55.85-3.38.81-4.11.75h-.14c-.04-.01-.08-.01-.13-.03-.38-.05-.74-.13-1.09-.25-.81-.27-1.56-.7-2.29-1.31-1.19-1-2.1-2.01-2.75-3.08l-.26-.41c-.42-.69-.82-1.34-1.14-2-1.36-2.73-2.23-5.77-2.59-9.03-.24-2.24-.2-4.15.15-5.88.16-.79.38-1.44.67-1.99.3-.58.62-.72.93-.79.34-.1.71-.12 1.11-.07.47.04.91.15 1.38.3.71.24 1.45.59 2.27 1.11 2.1 1.3 4.01 3.07 5.99 5.54.76.94 1.5 2.03 2.26 3.34 1.25 2.18 2.05 4.22 2.42 6.2.26 1.38.28 2.6.04 3.73-.26 1.26-.79 2.25-1.64 3.05z" fill="#00796b"/><path d="m226.92 112.28c.01.19-.09.28-.27.21-.16-.05-.31-.13-.44-.21-.73-.53-1.38-1.12-1.94-1.82-.53-.67-.96-1.42-1.37-2.16-.85-1.53-1.39-3.16-1.72-4.87-.25-1.31-.38-2.63-.26-3.96.04-.5.07-1 .24-1.49.11-.31.31-.55.6-.72.51-.31.99-.15 1.19.41.05.14.11.3.12.46.02.37.06.75.05 1.12-.04.7-.12 1.4-.18 2.11-.09.95-.04 1.91.18 2.85.22.9.54 1.77.85 2.63.55 1.49 1.25 2.92 2.26 4.16.16.22.33.42.49.64.13.19.19.41.2.64z" fill="#fff"/><g fill="#2c2c2c"><path d="m274.79 298.2c-50.38 0-91.37-40.99-91.37-91.37s40.99-91.37 91.37-91.37c18.31 0 35.97 5.4 51.09 15.61 1.85 1.25 2.33 3.76 1.09 5.61-1.25 1.85-3.76 2.34-5.61 1.09-13.77-9.3-29.88-14.22-46.57-14.22-45.93 0-83.29 37.36-83.29 83.29s37.36 83.29 83.29 83.29c20.35 0 39.94-7.42 55.16-20.88 1.67-1.48 4.22-1.32 5.7.35s1.32 4.22-.35 5.7c-16.7 14.76-38.19 22.9-60.51 22.9z"/><path d="m282.95 131.25c-1.97-.16-4.98-.29-6.76-.35-.63-.02-1.09-.04-1.35-.06.43 0 .88 0 1.35.02 1.86 0 3.73.08 5.61.25.39.04.76.08 1.15.14z"/><path d="m309.01 267.58c-.94-1.74-3.15-2.35-4.84-1.33-7.94 4.72-16.58 8.13-25.48 9.44-6.36.9-12.9.7-19.43-.85-1.89-.46-3.77-1.02-5.64-1.65-1.91-.65-3.8-1.4-5.64-2.2-26.42-11.47-44.4-39.85-41.59-68.67.12-1.38.31-2.76.53-4.14 1.52-9.1 4.94-17.95 9.8-25.94 6.19-10.09 14.76-18.73 24.9-24.61 17.06-9.9 38.4-12.07 57.13-5.86-1.52 10.62-3.73 21.24-8.08 31.04-4.38 9.8-11.08 18.78-20.2 24.46-7.62 4.77-16.55 6.92-25.58 7.11-2.95.07-5.9-.07-8.86-.41-2.88-.31-5.73-.82-8.52-1.48 0 0 .02-.07.05-.24.4-2.2 3.81-18.83 17.91-31.6h-1.02v-5.1c-5.79 3.39-11.51 8.09-16.22 14.7-.02.02-.05.07-.07.12-4.65 7.02-7.94 14.95-9.58 23.2-.1.48-.19.94-.27 1.43-.07.48-.17.97-.24 1.48-.12.77-.24 1.57-.34 2.4 5.08 1.48 10.28 2.64 15.53 3.29 3.41.46 6.85.73 10.31.73 1.11 0 2.2-.02 3.31-.07 9.82-.44 19.67-3 28.04-8.23 12.95-8.06 21.41-21.85 26.45-36.25 2.73-7.79 4.57-15.9 5.52-24.12.29-2.59.46-5.42-.97-7.65-1.67-2.59-4.98-3.53-8.01-4.14-16.24-3.34-33.71-3.68-49.43 2.15-15.37 5.71-28.17 17.25-37.41 30.58-4.98 7.19-8.42 15.24-10.38 23.69-.82 3.61-1.4 7.28-1.69 10.99-1.33 16.21 2.44 32.91 10.79 46.77 8.35 13.84 20.62 24.51 35.4 30.88 2.35.99 4.77 1.89 7.16 2.61 9.07 2.86 18.37 3.75 27.73 2.4 3.12-.41 6.19-1.11 9.32-2.06 6.34-1.94 12.39-4.72 18.12-8.13 1.63-.94 2.41-3.07 1.49-4.74z"/><path d="m253.66 161.13c1.71-.65 2.8 1.76 1.22 2.67-22.12 12.65-26.85 35.84-27.32 38.47-.02.17-.05.24-.05.24l-9.78 6.39c.1-.82.22-1.62.34-2.4.07-.51.17-.99.24-1.48.07-.48.17-.94.27-1.43 1.86-9.56 5.3-17.18 9.58-23.2.02-.05.05-.1.07-.12 7.24-10.15 16.85-15.89 25.43-19.14z"/><path d="m258.17 202.59c-.26.49-4.11 7.28-15.61 9.14-2.72.43-5.85.6-9.46.34-.71-.04-1.41-.11-2.16-.19-20.94-2.33-29.76-13.32-29.76-13.32l1.78-8.18c10.53 8.97 22.35 12.46 32.35 13.51 2.83.3 5.5.39 7.94.39 8.52-.07 14.47-1.59 14.92-1.69z"/></g></svg>